<?xml version="1.0" encoding="UTF-8"?>
<!DOCTYPE svg PUBLIC "-//W3C//DTD SVG 1.1//EN" "http://www.w3.org/Graphics/SVG/1.1/DTD/svg11.dtd">
<!-- Creator: CorelDRAW 2020 (64 Bit) -->
<svg xmlns="http://www.w3.org/2000/svg" xml:space="preserve" width="14.8166mm" height="9.6141mm" version="1.1" style="shape-rendering:geometricPrecision; text-rendering:geometricPrecision; image-rendering:optimizeQuality; fill-rule:evenodd; clip-rule:evenodd"
viewBox="0 0 19257.16 12495.46"
 xmlns:xlink="http://www.w3.org/1999/xlink"
 xmlns:xodm="http://www.corel.com/coreldraw/odm/2003">
 <defs>
  <style type="text/css">
   <![CDATA[
    .fil0 {fill:lime}
   ]]>
  </style>
 </defs>
 <g id="Camada_x0020_1">
  <metadata id="CorelCorpID_0Corel-Layer"/>
  <path class="fil0" d="M13857.29 6359.05c-129.97,-153.88 -340.26,-211.98 -528.85,-144.4l35.48 -26.25c-4826.18,1250.31 -6092.87,2204.29 -6116.92,2221.32 -1008.57,763.7 -1155.43,2191.3 -328.04,3190.12 825.31,998.04 2314.64,1192.61 3323.21,428.51 23.78,-15.6 1286.83,-974.52 3676.99,-5170.86l-35.48 26.51c109.95,-160.64 99.69,-376.78 -26.38,-524.95zm-4214.93 4947.96c-390.56,293.86 -927.6,360.02 -1400.04,172.47 -231.35,-91.89 -434.49,-239.67 -593.31,-432.02 -237.98,-279.44 -351.18,-644.52 -314.4,-1009.22 34.18,-358.46 217.57,-684.55 505.58,-899.78 11.05,-8.97 1074.2,-750.45 4678.54,-1767.2 -1867.41,3112.27 -2867.27,3927.44 -2876.37,3935.76z"/>
  <path class="fil0" d="M46.79 10533.17c0,3.25 -3.64,6.76 -3.64,12.35 0,1.82 1.82,5.59 1.82,7.41 0,1.69 -1.82,4.94 -1.82,6.76 0,254.48 205.74,458.53 458.53,458.53 -7.41,0 4083.4,-14.17 4083.4,-14.17 252.66,0 458.4,-205.74 458.4,-458.53 0,-252.66 -205.74,-458.53 -458.4,-458.53l-3642.8 0c-9.1,-154.01 -25.34,-302.7 -25.34,-458.27 0,-4810.85 3900.92,-8711.64 8711.51,-8711.64 4810.72,0 8711.64,3900.79 8711.64,8711.64 0,155.57 -16.12,304.26 -25.21,458.27l-3642.8 0c-252.79,0 -458.53,205.87 -458.53,458.53 0,252.79 205.74,458.53 458.53,458.53l4083.4 14.17c252.66,0 458.4,-205.87 458.4,-458.53 0,-3.64 -1.69,-5.07 -1.69,-6.76 0,-3.77 1.69,-5.59 1.69,-7.41 0,-5.59 -3.51,-9.1 -3.51,-12.35 30.54,-301.27 44.97,-603.97 46.79,-904.46 0,-5317.86 -4310.85,-9628.71 -9628.71,-9628.71 -5317.6,0 -9628.45,4310.85 -9628.45,9628.71 0,304.26 17.94,605.01 46.79,904.46z"/>
 </g>
</svg>
