<?xml version="1.0" encoding="UTF-8"?>
<!DOCTYPE svg PUBLIC "-//W3C//DTD SVG 1.1//EN" "http://www.w3.org/Graphics/SVG/1.1/DTD/svg11.dtd">
<!-- Creator: CorelDRAW 2020 (64 Bit) -->
<svg xmlns="http://www.w3.org/2000/svg" xml:space="preserve" width="14.8166mm" height="9.6141mm" version="1.1" style="shape-rendering:geometricPrecision; text-rendering:geometricPrecision; image-rendering:optimizeQuality; fill-rule:evenodd; clip-rule:evenodd"
viewBox="0 0 306.39 198.81"
 xmlns:xlink="http://www.w3.org/1999/xlink"
 xmlns:xodm="http://www.corel.com/coreldraw/odm/2003">
 <defs>
  <style type="text/css">
   <![CDATA[
    .fil0 {fill:red}
   ]]>
  </style>
 </defs>
 <g id="Camada_x0020_1">
  <metadata id="CorelCorpID_0Corel-Layer"/>
  <path class="fil0" d="M85.91 101.17c2.07,-2.45 5.41,-3.37 8.41,-2.3l-0.56 -0.42c76.79,19.89 96.94,35.07 97.32,35.34 16.05,12.15 18.38,34.86 5.22,50.76 -13.13,15.88 -36.83,18.97 -52.87,6.82 -0.38,-0.25 -20.47,-15.5 -58.5,-82.27l0.56 0.42c-1.75,-2.56 -1.59,-5.99 0.42,-8.35zm67.06 78.72c6.21,4.68 14.76,5.73 22.28,2.74 3.68,-1.46 6.91,-3.81 9.44,-6.87 3.79,-4.45 5.59,-10.25 5,-16.06 -0.54,-5.7 -3.46,-10.89 -8.04,-14.32 -0.18,-0.14 -17.09,-11.94 -74.44,-28.12 29.71,49.52 45.62,62.49 45.76,62.62z"/>
  <path class="fil0" d="M305.64 167.59c0,0.05 0.06,0.11 0.06,0.2 0,0.03 -0.03,0.09 -0.03,0.12 0,0.03 0.03,0.08 0.03,0.11 0,4.05 -3.27,7.3 -7.3,7.3 0.12,0 -64.97,-0.23 -64.97,-0.23 -4.02,0 -7.29,-3.27 -7.29,-7.3 0,-4.02 3.27,-7.3 7.29,-7.3l57.96 0c0.14,-2.45 0.4,-4.82 0.4,-7.29 0,-76.54 -62.06,-138.61 -138.6,-138.61 -76.54,0 -138.61,62.06 -138.61,138.61 0,2.48 0.26,4.84 0.4,7.29l57.96 0c4.02,0 7.3,3.28 7.3,7.3 0,4.02 -3.27,7.3 -7.3,7.3l-64.97 0.23c-4.02,0 -7.29,-3.28 -7.29,-7.3 0,-0.06 0.03,-0.08 0.03,-0.11 0,-0.06 -0.03,-0.09 -0.03,-0.12 0,-0.09 0.06,-0.14 0.06,-0.2 -0.49,-4.79 -0.72,-9.61 -0.74,-14.39 0,-84.61 68.59,-153.2 153.2,-153.2 84.6,0 153.19,68.59 153.19,153.2 0,4.84 -0.29,9.63 -0.74,14.39z"/>
 </g>
</svg>
