<?xml version="1.0" encoding="UTF-8"?>
<!DOCTYPE svg PUBLIC "-//W3C//DTD SVG 1.1//EN" "http://www.w3.org/Graphics/SVG/1.1/DTD/svg11.dtd">
<!-- Creator: CorelDRAW 2020 (64 Bit) -->
<svg xmlns="http://www.w3.org/2000/svg" xml:space="preserve" width="14.8166mm" height="10.0749mm" version="1.1" style="shape-rendering:geometricPrecision; text-rendering:geometricPrecision; image-rendering:optimizeQuality; fill-rule:evenodd; clip-rule:evenodd"
viewBox="0 0 589.26 400.68"
 xmlns:xlink="http://www.w3.org/1999/xlink"
 xmlns:xodm="http://www.corel.com/coreldraw/odm/2003">
 <defs>
  <style type="text/css">
   <![CDATA[
    .fil0 {fill:yellow}
   ]]>
  </style>
 </defs>
 <g id="Camada_x0020_1">
  <metadata id="CorelCorpID_0Corel-Layer"/>
  <path class="fil0" d="M293.87 134.51c6.15,0.43 11.38,4.58 13.11,10.46l0.01 -1.35c56.23,141.82 55.53,190.33 55.54,191.23 -0.66,38.7 -33.28,68.1 -72.89,65.69 -39.56,-2.37 -71.25,-35.66 -70.58,-74.37 -0.04,-0.87 0.85,-49.39 61.38,-184.2l-0.01 1.36c1.98,-5.62 7.51,-9.26 13.45,-8.82zm-46.16 193.46c-0.21,14.96 7.85,29.41 21.01,37.7 6.45,4.06 13.77,6.41 21.39,6.86 11.2,0.84 22.26,-2.96 30.61,-10.45 8.23,-7.32 12.98,-17.73 13.1,-28.74 0.02,-0.43 -0.85,-40.09 -40.8,-147.49 -43.18,102.32 -45.27,141.74 -45.31,142.11z"/>
  <path class="fil0" d="M587.83 322.31c0,0.1 0.11,0.21 0.11,0.38 0,0.06 -0.06,0.17 -0.06,0.23 0,0.05 0.06,0.15 0.06,0.21 0,7.79 -6.3,14.03 -14.03,14.03 0.23,0 -124.95,-0.43 -124.95,-0.43 -7.73,0 -14.03,-6.3 -14.03,-14.03 0,-7.73 6.3,-14.03 14.03,-14.03l111.47 0c0.28,-4.71 0.78,-9.26 0.78,-14.02 0,-147.21 -119.37,-266.57 -266.57,-266.57 -147.21,0 -266.57,119.36 -266.57,266.57 0,4.76 0.49,9.31 0.77,14.02l111.47 0c7.74,0 14.03,6.3 14.03,14.03 0,7.74 -6.3,14.03 -14.03,14.03l-124.95 0.43c-7.73,0 -14.03,-6.3 -14.03,-14.03 0,-0.11 0.05,-0.16 0.05,-0.21 0,-0.12 -0.05,-0.17 -0.05,-0.23 0,-0.17 0.11,-0.28 0.11,-0.38 -0.93,-9.22 -1.38,-18.48 -1.43,-27.68 0,-162.72 131.91,-294.63 294.63,-294.63 162.72,0 294.63,131.91 294.63,294.63 0,9.31 -0.55,18.51 -1.43,27.68z"/>
 </g>
</svg>
